<?xml version="1.0" encoding="UTF-8"?>
<svg width="800px" height="600px" viewBox="0 0 800 600" version="1.1" xmlns="http://www.w3.org/2000/svg" xmlns:xlink="http://www.w3.org/1999/xlink">
    <title>About CareerCompass AI Illustration</title>
    <defs>
        <linearGradient x1="50%" y1="0%" x2="50%" y2="100%" id="linearGradient-1">
            <stop stop-color="#4361EE" offset="0%"></stop>
            <stop stop-color="#3A0CA3" offset="100%"></stop>
        </linearGradient>
        <linearGradient x1="50%" y1="0%" x2="50%" y2="100%" id="linearGradient-2">
            <stop stop-color="#4CC9F0" offset="0%"></stop>
            <stop stop-color="#4361EE" offset="100%"></stop>
        </linearGradient>
    </defs>
    <g id="About-Illustration" stroke="none" stroke-width="1" fill="none" fill-rule="evenodd">
        <!-- Background Elements -->
        <circle id="Circle-1" fill="#F8F9FA" cx="200" cy="500" r="100"></circle>
        <circle id="Circle-2" fill="#E9ECEF" cx="600" cy="100" r="80"></circle>
        <circle id="Circle-3" fill-opacity="0.1" fill="#4361EE" cx="700" cy="400" r="60"></circle>
        
        <!-- Central Element - Brain with Connections -->
        <g id="Brain-Network" transform="translate(300, 200)">
            <!-- Brain Outline -->
            <path d="M100,50 C120,20 150,10 170,30 C190,10 220,20 240,50 C260,30 280,40 280,70 C300,60 310,80 300,100 C310,120 300,140 280,130 C280,160 260,170 240,150 C220,180 190,190 170,170 C150,190 120,180 100,150 C80,170 60,160 60,130 C40,140 30,120 40,100 C30,80 40,60 60,70 C60,40 80,30 100,50 Z" id="Brain" stroke="url(#linearGradient-1)" stroke-width="5" fill="#FFFFFF"></path>
            
            <!-- Brain Nodes -->
            <circle id="Node-1" fill="url(#linearGradient-1)" cx="80" cy="60" r="10"></circle>
            <circle id="Node-2" fill="url(#linearGradient-1)" cx="120" cy="40" r="10"></circle>
            <circle id="Node-3" fill="url(#linearGradient-1)" cx="160" cy="50" r="10"></circle>
            <circle id="Node-4" fill="url(#linearGradient-1)" cx="200" cy="40" r="10"></circle>
            <circle id="Node-5" fill="url(#linearGradient-1)" cx="240" cy="60" r="10"></circle>
            <circle id="Node-6" fill="url(#linearGradient-1)" cx="260" cy="100" r="10"></circle>
            <circle id="Node-7" fill="url(#linearGradient-1)" cx="240" cy="140" r="10"></circle>
            <circle id="Node-8" fill="url(#linearGradient-1)" cx="200" cy="160" r="10"></circle>
            <circle id="Node-9" fill="url(#linearGradient-1)" cx="160" cy="150" r="10"></circle>
            <circle id="Node-10" fill="url(#linearGradient-1)" cx="120" cy="160" r="10"></circle>
            <circle id="Node-11" fill="url(#linearGradient-1)" cx="80" cy="140" r="10"></circle>
            <circle id="Node-12" fill="url(#linearGradient-1)" cx="60" cy="100" r="10"></circle>
            <circle id="Node-13" fill="url(#linearGradient-2)" cx="160" cy="100" r="15"></circle>
            
            <!-- Connections -->
            <line x1="80" y1="60" x2="120" y2="40" stroke="url(#linearGradient-1)" stroke-width="2"></line>
            <line x1="120" y1="40" x2="160" y2="50" stroke="url(#linearGradient-1)" stroke-width="2"></line>
            <line x1="160" y1="50" x2="200" y2="40" stroke="url(#linearGradient-1)" stroke-width="2"></line>
            <line x1="200" y1="40" x2="240" y2="60" stroke="url(#linearGradient-1)" stroke-width="2"></line>
            <line x1="240" y1="60" x2="260" y2="100" stroke="url(#linearGradient-1)" stroke-width="2"></line>
            <line x1="260" y1="100" x2="240" y2="140" stroke="url(#linearGradient-1)" stroke-width="2"></line>
            <line x1="240" y1="140" x2="200" y2="160" stroke="url(#linearGradient-1)" stroke-width="2"></line>
            <line x1="200" y1="160" x2="160" y2="150" stroke="url(#linearGradient-1)" stroke-width="2"></line>
            <line x1="160" y1="150" x2="120" y2="160" stroke="url(#linearGradient-1)" stroke-width="2"></line>
            <line x1="120" y1="160" x2="80" y2="140" stroke="url(#linearGradient-1)" stroke-width="2"></line>
            <line x1="80" y1="140" x2="60" y2="100" stroke="url(#linearGradient-1)" stroke-width="2"></line>
            <line x1="60" y1="100" x2="80" y2="60" stroke="url(#linearGradient-1)" stroke-width="2"></line>
            
            <!-- Central Connections -->
            <line x1="160" y1="100" x2="80" y2="60" stroke="url(#linearGradient-2)" stroke-width="2"></line>
            <line x1="160" y1="100" x2="120" y2="40" stroke="url(#linearGradient-2)" stroke-width="2"></line>
            <line x1="160" y1="100" x2="160" y2="50" stroke="url(#linearGradient-2)" stroke-width="2"></line>
            <line x1="160" y1="100" x2="200" y2="40" stroke="url(#linearGradient-2)" stroke-width="2"></line>
            <line x1="160" y1="100" x2="240" y2="60" stroke="url(#linearGradient-2)" stroke-width="2"></line>
            <line x1="160" y1="100" x2="260" y2="100" stroke="url(#linearGradient-2)" stroke-width="2"></line>
            <line x1="160" y1="100" x2="240" y2="140" stroke="url(#linearGradient-2)" stroke-width="2"></line>
            <line x1="160" y1="100" x2="200" y2="160" stroke="url(#linearGradient-2)" stroke-width="2"></line>
            <line x1="160" y1="100" x2="160" y2="150" stroke="url(#linearGradient-2)" stroke-width="2"></line>
            <line x1="160" y1="100" x2="120" y2="160" stroke="url(#linearGradient-2)" stroke-width="2"></line>
            <line x1="160" y1="100" x2="80" y2="140" stroke="url(#linearGradient-2)" stroke-width="2"></line>
            <line x1="160" y1="100" x2="60" y2="100" stroke="url(#linearGradient-2)" stroke-width="2"></line>
        </g>
        
        <!-- Career Icons -->
        <g id="Career-Icons">
            <!-- Technology Icon -->
            <g id="Technology" transform="translate(100, 150)">
                <circle id="Tech-Background" fill="white" cx="40" cy="40" r="40"></circle>
                <rect id="Computer" stroke="#333333" stroke-width="3" x="10" y="20" width="60" height="40" rx="2"></rect>
                <rect id="Screen" fill="#4CC9F0" x="15" y="25" width="50" height="30"></rect>
                <rect id="Keyboard" stroke="#333333" stroke-width="2" x="20" y="65" width="40" height="10" rx="2"></rect>
            </g>
            
            <!-- Business Icon -->
            <g id="Business" transform="translate(650, 200)">
                <circle id="Business-Background" fill="white" cx="40" cy="40" r="40"></circle>
                <path d="M20,25 L20,65 L60,65 L60,25 L45,25 L45,15 L35,15 L35,25 L20,25 Z" id="Briefcase" stroke="#333333" stroke-width="3" fill="#F8F9FA"></path>
                <rect id="Handle" stroke="#333333" stroke-width="2" x="35" y="15" width="10" height="10"></rect>
            </g>
            
            <!-- Healthcare Icon -->
            <g id="Healthcare" transform="translate(150, 400)">
                <circle id="Healthcare-Background" fill="white" cx="40" cy="40" r="40"></circle>
                <rect id="Cross-Vertical" fill="#E74C3C" x="35" y="15" width="10" height="50"></rect>
                <rect id="Cross-Horizontal" fill="#E74C3C" x="15" y="35" width="50" height="10"></rect>
            </g>
            
            <!-- Education Icon -->
            <g id="Education" transform="translate(600, 400)">
                <circle id="Education-Background" fill="white" cx="40" cy="40" r="40"></circle>
                <path d="M40,15 L70,30 L40,45 L10,30 L40,15 Z" id="Cap-Top" fill="#4361EE"></path>
                <rect id="Cap-Bottom" fill="#3A0CA3" x="25" y="45" width="30" height="20"></rect>
                <rect id="Tassel" fill="#4CC9F0" x="55" y="30" width="5" height="25"></rect>
            </g>
        </g>
        
        <!-- Connecting Lines -->
        <line x1="140" y1="150" x2="300" y2="250" stroke="#E9ECEF" stroke-width="3" stroke-dasharray="5,5"></line>
        <line x1="650" y1="200" x2="580" y2="250" stroke="#E9ECEF" stroke-width="3" stroke-dasharray="5,5"></line>
        <line x1="150" y1="400" x2="300" y2="350" stroke="#E9ECEF" stroke-width="3" stroke-dasharray="5,5"></line>
        <line x1="600" y1="400" x2="580" y2="350" stroke="#E9ECEF" stroke-width="3" stroke-dasharray="5,5"></line>
        
        <!-- Decorative Elements -->
        <circle id="Dot-1" fill="#4361EE" cx="200" cy="200" r="5"></circle>
        <circle id="Dot-2" fill="#4361EE" cx="220" cy="300" r="5"></circle>
        <circle id="Dot-3" fill="#4361EE" cx="600" cy="300" r="5"></circle>
        <circle id="Dot-4" fill="#4361EE" cx="500" cy="150" r="5"></circle>
        <circle id="Dot-5" fill="#4361EE" cx="400" cy="450" r="5"></circle>
        
        <circle id="Dot-6" fill="#4CC9F0" cx="250" cy="150" r="3"></circle>
        <circle id="Dot-7" fill="#4CC9F0" cx="350" cy="400" r="3"></circle>
        <circle id="Dot-8" fill="#4CC9F0" cx="550" cy="200" r="3"></circle>
        <circle id="Dot-9" fill="#4CC9F0" cx="450" cy="250" r="3"></circle>
        <circle id="Dot-10" fill="#4CC9F0" cx="500" cy="350" r="3"></circle>
    </g>
</svg>
